<svg version="1.1" preserveAspectRatio="none" xmlns="http://www.w3.org/2000/svg" width="500" height="500" viewBox="0 0 500 500"><rect width="100%" height="100%" fill="#101010" fill-opacity="1"/><svg viewBox="-10.2894 87.3334 353.912 158" width="333" height="148.6640746852325" x="83.5px" y="175.668px" xmlns="http://www.w3.org/2000/svg" xmlns:xlink="http://www.w3.org/1999/xlink" preserveAspectRatio="none"><defs></defs><style>.icon1 {fill:#EBEBEB;fill-opacity:1;}.icon2 {fill:#D4D4D4;fill-opacity:1;}.icon3 {fill:#A0A0A0;fill-opacity:1;}.icon3-str {stroke:#A0A0A0;stroke-opacity:1;}</style><g opacity="1" transform="rotate(0 32.8547 231.3334)">
<svg width="267.6238" height="14" x="32.8547" y="231.3334" version="1.1" preserveAspectRatio="none" viewBox="1.92 -28.32 547.48 28.64">
  <g transform="matrix(1 0 0 1 0 0)" class="icon3"><path id="id-6izo4zJp21" d="M9.12 0.32Q5.88 0.32 3.90-1.66Q1.92-3.64 1.92-6.92L1.92-6.92L1.92-21.12Q1.92-24.40 3.90-26.36Q5.88-28.32 9.12-28.32L9.12-28.32Q12.40-28.32 14.38-26.36Q16.36-24.40 16.36-21.12L16.36-21.12L16.36-20.48Q16.36-20.08 15.96-20.08L15.96-20.08L12.92-19.92Q12.52-19.92 12.52-20.32L12.52-20.32L12.52-21.36Q12.52-23 11.58-24Q10.64-25 9.12-25L9.12-25Q7.60-25 6.68-24Q5.76-23 5.76-21.36L5.76-21.36L5.76-6.64Q5.76-5 6.68-4Q7.60-3 9.12-3L9.12-3Q10.64-3 11.58-4Q12.52-5 12.52-6.64L12.52-6.64L12.52-7.68Q12.52-8.08 12.92-8.08L12.92-8.08L15.96-7.92Q16.36-7.92 16.36-7.52L16.36-7.52L16.36-6.92Q16.36-3.64 14.38-1.66Q12.40 0.32 9.12 0.32L9.12 0.32Z M30.96 0Q30.56 0 30.56-0.40L30.56-0.40L30.56-27.60Q30.56-28 30.96-28L30.96-28L34-28Q34.40-28 34.40-27.60L34.40-27.60L34.40-3.48Q34.40-3.32 34.56-3.32L34.56-3.32L43.52-3.32Q43.92-3.32 43.92-2.92L43.92-2.92L43.92-0.40Q43.92 0 43.52 0L43.52 0L30.96 0Z M63.48 0.32Q60.20 0.32 58.20-1.68Q56.20-3.68 56.20-7L56.20-7L56.20-20.96Q56.20-24.28 58.20-26.30Q60.20-28.32 63.48-28.32L63.48-28.32Q66.80-28.32 68.82-26.30Q70.84-24.28 70.84-20.96L70.84-20.96L70.84-7Q70.84-3.68 68.82-1.68Q66.80 0.32 63.48 0.32L63.48 0.32ZM63.48-3Q65.08-3 66.04-4.06Q67-5.12 67-6.84L67-6.84L67-21.16Q67-22.88 66.04-23.94Q65.08-25 63.48-25L63.48-25Q61.92-25 60.98-23.94Q60.04-22.88 60.04-21.16L60.04-21.16L60.04-6.84Q60.04-5.12 60.98-4.06Q61.92-3 63.48-3L63.48-3Z M91.60 0.32Q88.44 0.32 86.50-1.66Q84.56-3.64 84.56-6.84L84.56-6.84L84.56-7.92Q84.56-8.32 84.96-8.32L84.96-8.32L87.92-8.32Q88.32-8.32 88.32-7.92L88.32-7.92L88.32-7.04Q88.32-5.20 89.24-4.10Q90.16-3 91.60-3L91.60-3Q93.04-3 93.98-4.06Q94.92-5.12 94.92-6.84L94.92-6.84Q94.92-8 94.42-8.88Q93.92-9.76 93.10-10.46Q92.28-11.16 90.44-12.52L90.44-12.52Q88.40-14.04 87.24-15.12Q86.08-16.20 85.28-17.72Q84.48-19.24 84.48-21.28L84.48-21.28Q84.48-24.52 86.40-26.42Q88.32-28.32 91.40-28.32L91.40-28.32Q94.60-28.32 96.54-26.28Q98.48-24.24 98.48-20.92L98.48-20.92L98.48-19.92Q98.48-19.52 98.08-19.52L98.08-19.52L95.12-19.52Q94.72-19.52 94.72-19.92L94.72-19.92L94.72-21Q94.72-22.80 93.80-23.90Q92.88-25 91.40-25L91.40-25Q90-25 89.14-24.02Q88.28-23.04 88.28-21.28L88.28-21.28Q88.28-19.68 89.16-18.58Q90.04-17.48 92.52-15.64L92.52-15.64Q94.96-13.84 96.18-12.72Q97.40-11.60 98.06-10.26Q98.72-8.92 98.72-7.08L98.72-7.08Q98.72-3.72 96.74-1.70Q94.76 0.32 91.60 0.32L91.60 0.32Z M125.76-25.08Q125.76-24.68 125.36-24.68L125.36-24.68L116.36-24.68Q116.20-24.68 116.20-24.52L116.20-24.52L116.20-15.84Q116.20-15.68 116.36-15.68L116.36-15.68L121.88-15.68Q122.28-15.68 122.28-15.28L122.28-15.28L122.28-12.76Q122.28-12.36 121.88-12.36L121.88-12.36L116.36-12.36Q116.20-12.36 116.20-12.20L116.20-12.20L116.20-3.48Q116.20-3.32 116.36-3.32L116.36-3.32L125.36-3.32Q125.76-3.32 125.76-2.92L125.76-2.92L125.76-0.40Q125.76 0 125.36 0L125.36 0L112.76 0Q112.36 0 112.36-0.40L112.36-0.40L112.36-27.60Q112.36-28 112.76-28L112.76-28L125.36-28Q125.76-28 125.76-27.60L125.76-27.60L125.76-25.08Z M153.12-28Q153.52-28 153.52-27.60L153.52-27.60L153.52-25.08Q153.52-24.68 153.12-24.68L153.12-24.68L147.88-24.68Q147.72-24.68 147.72-24.52L147.72-24.52L147.72-0.40Q147.72 0 147.32 0L147.32 0L144.28 0Q143.88 0 143.88-0.40L143.88-0.40L143.88-24.52Q143.88-24.68 143.72-24.68L143.72-24.68L138.76-24.68Q138.36-24.68 138.36-25.08L138.36-25.08L138.36-27.60Q138.36-28 138.76-28L138.76-28L153.12-28Z M198.56-25.08Q198.56-24.68 198.16-24.68L198.16-24.68L189.20-24.68Q189.04-24.68 189.04-24.52L189.04-24.52L189.04-15.84Q189.04-15.68 189.20-15.68L189.20-15.68L194.68-15.68Q195.08-15.68 195.08-15.28L195.08-15.28L195.08-12.76Q195.08-12.36 194.68-12.36L194.68-12.36L189.20-12.36Q189.04-12.36 189.04-12.20L189.04-12.20L189.04-0.40Q189.04 0 188.64 0L188.64 0L185.60 0Q185.20 0 185.20-0.40L185.20-0.40L185.20-27.60Q185.20-28 185.60-28L185.60-28L198.16-28Q198.56-28 198.56-27.60L198.56-27.60L198.56-25.08Z M218.32 0.32Q215.04 0.32 213.04-1.68Q211.04-3.68 211.04-7L211.04-7L211.04-20.96Q211.04-24.28 213.04-26.30Q215.04-28.32 218.32-28.32L218.32-28.32Q221.64-28.32 223.66-26.30Q225.68-24.28 225.68-20.96L225.68-20.96L225.68-7Q225.68-3.68 223.66-1.68Q221.64 0.32 218.32 0.32L218.32 0.32ZM218.32-3Q219.92-3 220.88-4.06Q221.84-5.12 221.84-6.84L221.84-6.84L221.84-21.16Q221.84-22.88 220.88-23.94Q219.92-25 218.32-25L218.32-25Q216.76-25 215.82-23.94Q214.88-22.88 214.88-21.16L214.88-21.16L214.88-6.84Q214.88-5.12 215.82-4.06Q216.76-3 218.32-3L218.32-3Z M251.20 0Q250.84 0 250.72-0.32L250.72-0.32L247.00-12.32Q246.96-12.44 246.84-12.44L246.84-12.44L244.08-12.44Q243.92-12.44 243.92-12.28L243.92-12.28L243.92-0.40Q243.92 0 243.52 0L243.52 0L240.48 0Q240.08 0 240.08-0.40L240.08-0.40L240.08-27.64Q240.08-28.04 240.48-28.04L240.48-28.04L247.64-28.04Q249.68-28.04 251.24-27.04Q252.80-26.04 253.66-24.22Q254.52-22.40 254.52-20.08L254.52-20.08Q254.52-17.56 253.46-15.70Q252.40-13.84 250.60-13.04L250.60-13.04Q250.48-12.92 250.52-12.80L250.52-12.80L254.64-0.44L254.68-0.28Q254.68 0 254.32 0L254.32 0L251.20 0ZM244.08-24.72Q243.92-24.72 243.92-24.56L243.92-24.56L243.92-15.60Q243.92-15.44 244.08-15.44L244.08-15.44L247.04-15.44Q248.68-15.44 249.68-16.70Q250.68-17.96 250.68-20.04L250.68-20.04Q250.68-22.20 249.68-23.46Q248.68-24.72 247.04-24.72L247.04-24.72L244.08-24.72Z M286.60 0Q286.20 0 286.20-0.40L286.20-0.40L286.20-27.60Q286.20-28 286.60-28L286.60-28L293.16-28Q296.48-28 298.44-25.96Q300.40-23.92 300.40-20.44L300.40-20.44L300.40-7.56Q300.40-4.08 298.44-2.04Q296.48 0 293.16 0L293.16 0L286.60 0ZM290.04-3.48Q290.04-3.32 290.20-3.32L290.20-3.32L293.12-3.36Q294.64-3.36 295.56-4.54Q296.48-5.72 296.52-7.76L296.52-7.76L296.52-20.24Q296.52-22.28 295.60-23.48Q294.68-24.68 293.12-24.68L293.12-24.68L290.20-24.68Q290.04-24.68 290.04-24.52L290.04-24.52L290.04-3.48Z M328.12-25.08Q328.12-24.68 327.72-24.68L327.72-24.68L318.72-24.68Q318.56-24.68 318.56-24.52L318.56-24.52L318.56-15.84Q318.56-15.68 318.72-15.68L318.72-15.68L324.24-15.68Q324.64-15.68 324.64-15.28L324.64-15.28L324.64-12.76Q324.64-12.36 324.24-12.36L324.24-12.36L318.72-12.36Q318.56-12.36 318.56-12.20L318.56-12.20L318.56-3.48Q318.56-3.32 318.72-3.32L318.72-3.32L327.72-3.32Q328.12-3.32 328.12-2.92L328.12-2.92L328.12-0.40Q328.12 0 327.72 0L327.72 0L315.12 0Q314.72 0 314.72-0.40L314.72-0.40L314.72-27.60Q314.72-28 315.12-28L315.12-28L327.72-28Q328.12-28 328.12-27.60L328.12-27.60L328.12-25.08Z M346.96 0Q346.60 0 346.52-0.36L346.52-0.36L340.76-27.56L340.76-27.64Q340.76-28 341.12-28L341.12-28L344.44-28Q344.84-28 344.88-27.64L344.88-27.64L348.68-6.88Q348.72-6.80 348.76-6.80Q348.80-6.80 348.84-6.88L348.84-6.88L352.56-27.64Q352.64-28 353-28L353-28L356.20-28Q356.64-28 356.56-27.56L356.56-27.56L350.80-0.36Q350.76 0 350.36 0L350.36 0L346.96 0Z M383.68-25.08Q383.68-24.68 383.28-24.68L383.28-24.68L374.28-24.68Q374.12-24.68 374.12-24.52L374.12-24.52L374.12-15.84Q374.12-15.68 374.28-15.68L374.28-15.68L379.80-15.68Q380.20-15.68 380.20-15.28L380.20-15.28L380.20-12.76Q380.20-12.36 379.80-12.36L379.80-12.36L374.28-12.36Q374.12-12.36 374.12-12.20L374.12-12.20L374.12-3.48Q374.12-3.32 374.28-3.32L374.28-3.32L383.28-3.32Q383.68-3.32 383.68-2.92L383.68-2.92L383.68-0.40Q383.68 0 383.28 0L383.28 0L370.68 0Q370.28 0 370.28-0.40L370.28-0.40L370.28-27.60Q370.28-28 370.68-28L370.68-28L383.28-28Q383.68-28 383.68-27.60L383.68-27.60L383.68-25.08Z M397.96 0Q397.56 0 397.56-0.40L397.56-0.40L397.56-27.60Q397.56-28 397.96-28L397.96-28L401.00-28Q401.40-28 401.40-27.60L401.40-27.60L401.40-3.48Q401.40-3.32 401.56-3.32L401.56-3.32L410.52-3.32Q410.92-3.32 410.92-2.92L410.92-2.92L410.92-0.40Q410.92 0 410.52 0L410.52 0L397.96 0Z M430.48 0.32Q427.20 0.32 425.20-1.68Q423.20-3.68 423.20-7L423.20-7L423.20-20.96Q423.20-24.28 425.20-26.30Q427.20-28.32 430.48-28.32L430.48-28.32Q433.80-28.32 435.82-26.30Q437.84-24.28 437.84-20.96L437.84-20.96L437.84-7Q437.84-3.68 435.82-1.68Q433.80 0.32 430.48 0.32L430.48 0.32ZM430.48-3Q432.08-3 433.04-4.06Q434.00-5.12 434.00-6.84L434.00-6.84L434.00-21.16Q434.00-22.88 433.04-23.94Q432.08-25 430.48-25L430.48-25Q428.92-25 427.98-23.94Q427.04-22.88 427.04-21.16L427.04-21.16L427.04-6.84Q427.04-5.12 427.98-4.06Q428.92-3 430.48-3L430.48-3Z M459.76-28.04Q462.84-28.04 464.74-25.82Q466.64-23.60 466.64-20L466.64-20Q466.64-16.48 464.80-14.32Q462.96-12.16 459.96-12.16L459.96-12.16L456.20-12.16Q456.04-12.16 456.04-12L456.04-12L456.04-0.40Q456.04 0 455.64 0L455.64 0L452.60 0Q452.20 0 452.20-0.40L452.20-0.40L452.20-27.64Q452.20-28.04 452.60-28.04L452.60-28.04L459.76-28.04ZM459.16-15.24Q460.80-15.24 461.80-16.50Q462.80-17.76 462.80-19.92L462.80-19.92Q462.80-22.12 461.80-23.42Q460.80-24.72 459.16-24.72L459.16-24.72L456.20-24.72Q456.04-24.72 456.04-24.56L456.04-24.56L456.04-15.40Q456.04-15.24 456.20-15.24L456.20-15.24L459.16-15.24Z M493.68-25.08Q493.68-24.68 493.28-24.68L493.28-24.68L484.28-24.68Q484.12-24.68 484.12-24.52L484.12-24.52L484.12-15.84Q484.12-15.68 484.28-15.68L484.28-15.68L489.80-15.68Q490.20-15.68 490.20-15.28L490.20-15.28L490.20-12.76Q490.20-12.36 489.80-12.36L489.80-12.36L484.28-12.36Q484.12-12.36 484.12-12.20L484.12-12.20L484.12-3.48Q484.12-3.32 484.28-3.32L484.28-3.32L493.28-3.32Q493.68-3.32 493.68-2.92L493.68-2.92L493.68-0.40Q493.68 0 493.28 0L493.28 0L480.68 0Q480.28 0 480.28-0.40L480.28-0.40L480.28-27.60Q480.28-28 480.68-28L480.68-28L493.28-28Q493.68-28 493.68-27.60L493.68-27.60L493.68-25.08Z M518.68 0Q518.32 0 518.20-0.32L518.20-0.32L514.48-12.32Q514.44-12.44 514.32-12.44L514.32-12.44L511.56-12.44Q511.40-12.44 511.40-12.28L511.40-12.28L511.40-0.40Q511.40 0 511.00 0L511.00 0L507.96 0Q507.56 0 507.56-0.40L507.56-0.40L507.56-27.64Q507.56-28.04 507.96-28.04L507.96-28.04L515.12-28.04Q517.16-28.04 518.72-27.04Q520.28-26.04 521.14-24.22Q522.00-22.40 522.00-20.08L522.00-20.08Q522.00-17.56 520.94-15.70Q519.88-13.84 518.08-13.04L518.08-13.04Q517.96-12.92 518.00-12.80L518.00-12.80L522.12-0.44L522.16-0.28Q522.16 0 521.80 0L521.80 0L518.68 0ZM511.56-24.72Q511.40-24.72 511.40-24.56L511.40-24.56L511.40-15.60Q511.40-15.44 511.56-15.44L511.56-15.44L514.52-15.44Q516.16-15.44 517.16-16.70Q518.16-17.96 518.16-20.04L518.16-20.04Q518.16-22.20 517.16-23.46Q516.16-24.72 514.52-24.72L514.52-24.72L511.56-24.72Z M542.28 0.32Q539.12 0.32 537.18-1.66Q535.24-3.64 535.24-6.84L535.24-6.84L535.24-7.92Q535.24-8.32 535.64-8.32L535.64-8.32L538.60-8.32Q539.00-8.32 539.00-7.92L539.00-7.92L539.00-7.04Q539.00-5.20 539.92-4.10Q540.84-3 542.28-3L542.28-3Q543.72-3 544.66-4.06Q545.60-5.12 545.60-6.84L545.60-6.84Q545.60-8 545.10-8.88Q544.60-9.76 543.78-10.46Q542.96-11.16 541.12-12.52L541.12-12.52Q539.08-14.04 537.92-15.12Q536.76-16.20 535.96-17.72Q535.16-19.24 535.16-21.28L535.16-21.28Q535.16-24.52 537.08-26.42Q539.00-28.32 542.08-28.32L542.08-28.32Q545.28-28.32 547.22-26.28Q549.16-24.24 549.16-20.92L549.16-20.92L549.16-19.92Q549.16-19.52 548.76-19.52L548.76-19.52L545.80-19.52Q545.40-19.52 545.40-19.92L545.40-19.92L545.40-21Q545.40-22.80 544.48-23.90Q543.56-25 542.08-25L542.08-25Q540.68-25 539.82-24.02Q538.96-23.04 538.96-21.28L538.96-21.28Q538.96-19.68 539.84-18.58Q540.72-17.48 543.20-15.64L543.20-15.64Q545.64-13.84 546.86-12.72Q548.08-11.60 548.74-10.26Q549.40-8.92 549.40-7.08L549.40-7.08Q549.40-3.72 547.42-1.70Q545.44 0.32 542.28 0.32L542.28 0.32Z"/></g>
</svg>
</g><g opacity="1" transform="rotate(0 142.9523 87.3334)">
<svg width="47.4286" height="56" x="142.9523" y="87.3334" version="1.1" preserveAspectRatio="none" viewBox="32.458580017089844 19.999998092651367 135.3414306640625 159.79998779296875">
  <g transform="matrix(-1 0 0 1 200.2585906982422 0)" ><g><path d="M167.5 109.2v-.5l-40.6-70c-.2-.3-.5-.5-.8-.5H94L75.4 20.3s-.1 0-.1-.1l-.1-.1c-.1 0-.2-.1-.3-.1h-.5c-.1 0-.1 0-.2.1L44.4 38.3c-.1.1-.2.1-.2.2-.2.2-.2.3-.2.4L32.5 89.7v.4c-.1.2 0 .5.1.7l41.2 70.4c0 .1.1.1.1.2.1.1.3.2.4.2H110l15.3 17.9c.1.1.2.2.3.2h.1c.1 0 .2.1.4.1h.3c.1 0 .1 0 .2-.1h.1l29.8-18.2.1-.1c.1 0 .1-.1.2-.1l.1-.1c0-.1.1-.1.1-.2v-.1l10.8-51.8c-.3.2-.3.2-.3.1zM155 159.9h-16.8l26.2-45.2-9.4 45.2zm-2.6 1.9l-23.7 14.4 8.4-14.4h15.3zM99 146.2L36.2 91l126.7 18.5L99 146.2zm-24 13.4L36.6 93.9l60.6 53.3L75 159.6zm-29.5-119l12.2 7L35.6 85l9.9-44.4zM60.4 47l4.1-6.9h28.8l67.5 64.8L60.4 47zm100.8 60.3L35.5 88.9l23.9-40.3 101.8 58.7zM58.7 46l-10.2-5.9h13.7L58.7 46zm-10.4-7.8l23.6-14.4-8.5 14.4H48.3zm116.1 72.7l-28.4 49h-25.1l-10.5-12.3 64-36.7zm-39-70.8l36.9 63.6L96 40.1h29.4zm-59.8-1.9l9.3-15.7 16.4 15.7H65.6zm12.8 121.7l20.3-11.3 9.7 11.3h-30zm56.5 1.9l-9 15.6-13.3-15.6h22.3z" data-color="1" class="icon1"></path></g></g>
</svg>
</g><g opacity="1" transform="rotate(0 -10.2894 169.3334)">
<svg width="353.912" height="40" x="-10.2894" y="169.3334" version="1.1" preserveAspectRatio="none" viewBox="2.16 -28.32 253.32 28.64">
  <g transform="matrix(1 0 0 1 0 0)" class="icon1"><path id="id-D6z1nYkh12" d="M2.64 0Q2.44 0 2.30-0.14Q2.16-0.28 2.16-0.48L2.16-0.48L2.16-27.52Q2.16-27.72 2.30-27.86Q2.44-28 2.64-28L2.64-28L9.48-28Q12.92-28 14.98-25.92Q17.04-23.84 17.04-20.36L17.04-20.36L17.04-7.64Q17.04-4.16 14.98-2.08Q12.92 0 9.48 0L9.48 0L2.64 0ZM6.80-4.20Q6.80-4 7-4L7-4L9.40-4.04Q10.72-4.04 11.54-5.10Q12.36-6.16 12.40-7.92L12.40-7.92L12.40-20.08Q12.40-21.88 11.58-22.94Q10.76-24 9.36-24L9.36-24L7-24Q6.80-24 6.80-23.80L6.80-23.80L6.80-4.20Z M38.04-24.48Q38.04-24.28 37.90-24.14Q37.76-24 37.56-24L37.56-24L28.92-24Q28.72-24 28.72-23.80L28.72-23.80L28.72-16.24Q28.72-16.04 28.92-16.04L28.92-16.04L34.04-16.04Q34.24-16.04 34.38-15.90Q34.52-15.76 34.52-15.56L34.52-15.56L34.52-12.48Q34.52-12.28 34.38-12.14Q34.24-12 34.04-12L34.04-12L28.92-12Q28.72-12 28.72-11.80L28.72-11.80L28.72-4.20Q28.72-4 28.92-4L28.92-4L37.56-4Q37.76-4 37.90-3.86Q38.04-3.72 38.04-3.52L38.04-3.52L38.04-0.48Q38.04-0.28 37.90-0.14Q37.76 0 37.56 0L37.56 0L24.56 0Q24.36 0 24.22-0.14Q24.08-0.28 24.08-0.48L24.08-0.48L24.08-27.52Q24.08-27.72 24.22-27.86Q24.36-28 24.56-28L24.56-28L37.56-28Q37.76-28 37.90-27.86Q38.04-27.72 38.04-27.52L38.04-27.52L38.04-24.48Z M49.88 0Q49.44 0 49.36-0.44L49.36-0.44L43.64-27.48L43.60-27.64Q43.60-28 44.04-28L44.04-28L48.08-28Q48.56-28 48.60-27.56L48.60-27.56L51.92-8.32Q51.96-8.20 52.04-8.20Q52.12-8.20 52.16-8.32L52.16-8.32L55.40-27.56Q55.44-28 55.92-28L55.92-28L59.84-28Q60.36-28 60.24-27.48L60.24-27.48L54.48-0.44Q54.40 0 53.96 0L53.96 0L49.88 0Z M73 0.32Q69.72 0.32 67.68-1.70Q65.64-3.72 65.64-6.92L65.64-6.92L65.64-8.04Q65.64-8.24 65.78-8.38Q65.92-8.52 66.12-8.52L66.12-8.52L69.72-8.52Q69.92-8.52 70.06-8.38Q70.20-8.24 70.20-8.04L70.20-8.04L70.20-7.16Q70.20-5.60 71.00-4.64Q71.80-3.68 73-3.68L73-3.68Q74.24-3.68 75.04-4.58Q75.84-5.48 75.84-6.96L75.84-6.96Q75.84-7.96 75.40-8.74Q74.96-9.52 74.18-10.20Q73.40-10.88 71.64-12.16L71.64-12.16Q69.64-13.60 68.42-14.72Q67.20-15.84 66.38-17.42Q65.56-19 65.56-21.08L65.56-21.08Q65.56-24.40 67.56-26.36Q69.56-28.32 72.80-28.32L72.80-28.32Q76.16-28.32 78.20-26.26Q80.24-24.20 80.24-20.80L80.24-20.80L80.24-19.84Q80.24-19.64 80.10-19.50Q79.96-19.36 79.76-19.36L79.76-19.36L76.12-19.36Q75.92-19.36 75.78-19.50Q75.64-19.64 75.64-19.84L75.64-19.84L75.64-20.88Q75.64-22.44 74.86-23.38Q74.08-24.32 72.80-24.32L72.80-24.32Q71.64-24.32 70.88-23.46Q70.12-22.60 70.12-21.08L70.12-21.08Q70.12-19.64 70.94-18.64Q71.76-17.64 74.16-15.88L74.16-15.88Q76.60-14.04 77.84-12.92Q79.08-11.80 79.76-10.44Q80.44-9.08 80.44-7.20L80.44-7.20Q80.44-3.80 78.38-1.74Q76.32 0.32 73 0.32L73 0.32Z M91.16 0Q90.68 0 90.64-0.44L90.64-0.44L85.32-27.48L85.28-27.64Q85.28-28 85.72-28L85.72-28L89.56-28Q90.04-28 90.08-27.56L90.08-27.56L92.88-10.88Q92.92-10.76 93.00-10.76Q93.08-10.76 93.12-10.88L93.12-10.88L95.64-27.56Q95.68-28 96.16-28L96.16-28L99.36-28Q99.84-28 99.88-27.56L99.88-27.56L102.60-10.88Q102.64-10.76 102.72-10.76Q102.80-10.76 102.84-10.88L102.84-10.88L105.36-27.56Q105.40-28 105.88-28L105.88-28L109.60-28Q110.12-28 110.04-27.48L110.04-27.48L104.96-0.44Q104.92 0 104.44 0L104.44 0L101.04 0Q100.56 0 100.52-0.44L100.52-0.44L97.84-17.44Q97.80-17.60 97.72-17.60Q97.64-17.60 97.60-17.44L97.60-17.44L95.12-0.44Q95.08 0 94.60 0L94.60 0L91.16 0Z M130.28-24.48Q130.28-24.28 130.14-24.14Q130.00-24 129.80-24L129.80-24L121.16-24Q120.96-24 120.96-23.80L120.96-23.80L120.96-16.24Q120.96-16.04 121.16-16.04L121.16-16.04L126.28-16.04Q126.48-16.04 126.62-15.90Q126.76-15.76 126.76-15.56L126.76-15.56L126.76-12.48Q126.76-12.28 126.62-12.14Q126.48-12 126.28-12L126.28-12L121.16-12Q120.96-12 120.96-11.80L120.96-11.80L120.96-4.20Q120.96-4 121.16-4L121.16-4L129.80-4Q130.00-4 130.14-3.86Q130.28-3.72 130.28-3.52L130.28-3.52L130.28-0.48Q130.28-0.28 130.14-0.14Q130.00 0 129.80 0L129.80 0L116.80 0Q116.60 0 116.46-0.14Q116.32-0.28 116.32-0.48L116.32-0.48L116.32-27.52Q116.32-27.72 116.46-27.86Q116.60-28 116.80-28L116.80-28L129.80-28Q130.00-28 130.14-27.86Q130.28-27.72 130.28-27.52L130.28-27.52L130.28-24.48Z M149.60 0Q149.12 0 149.08-0.44L149.08-0.44L148.32-4.64Q148.32-4.84 148.08-4.84L148.08-4.84L142.28-4.84Q142.04-4.84 142.04-4.68L142.04-4.68L141.24-0.44Q141.20 0 140.72 0L140.72 0L137.04 0Q136.52 0 136.64-0.52L136.64-0.52L142.52-27.56Q142.60-28 143.04-28L143.04-28L147.32-28Q147.76-28 147.84-27.56L147.84-27.56L153.76-0.52L153.76-0.36Q153.76 0 153.32 0L153.32 0L149.60 0ZM142.84-8.68Q142.80-8.48 143.04-8.48L143.04-8.48L147.40-8.48Q147.64-8.48 147.60-8.68L147.60-8.68L145.40-20.76Q145.36-20.88 145.28-20.88Q145.20-20.88 145.16-20.76L145.16-20.76L142.84-8.68Z M171.32 0Q170.92 0 170.80-0.40L170.80-0.40L167.36-11.92Q167.28-12.08 167.16-12.08L167.16-12.08L165.08-12.08Q164.88-12.08 164.88-11.88L164.88-11.88L164.88-0.48Q164.88-0.28 164.74-0.14Q164.60 0 164.40 0L164.40 0L160.72 0Q160.52 0 160.38-0.14Q160.24-0.28 160.24-0.48L160.24-0.48L160.24-27.56Q160.24-27.76 160.38-27.90Q160.52-28.04 160.72-28.04L160.72-28.04L168.24-28.04Q170.36-28.04 171.98-27.02Q173.60-26 174.50-24.14Q175.40-22.28 175.40-19.88L175.40-19.88Q175.40-17.40 174.44-15.58Q173.48-13.76 171.76-12.84L171.76-12.84Q171.60-12.80 171.64-12.60L171.64-12.60L175.56-0.56Q175.60-0.48 175.60-0.36L175.60-0.36Q175.60 0 175.16 0L175.16 0L171.32 0ZM165.08-24.04Q164.88-24.04 164.88-23.84L164.88-23.84L164.88-15.88Q164.88-15.68 165.08-15.68L165.08-15.68L167.52-15.68Q168.96-15.68 169.86-16.80Q170.76-17.92 170.76-19.80L170.76-19.80Q170.76-21.76 169.86-22.90Q168.96-24.04 167.52-24.04L167.52-24.04L165.08-24.04Z M184.52 0.04Q183.24 0.04 182.40-0.84Q181.56-1.72 181.56-3.04L181.56-3.04Q181.56-4.28 182.48-5.18Q183.40-6.08 184.52-6.08L184.52-6.08Q185.68-6.08 186.60-5.18Q187.52-4.28 187.52-3.04L187.52-3.04Q187.52-1.76 186.66-0.86Q185.80 0.04 184.52 0.04L184.52 0.04Z M201.96 0.32Q198.56 0.32 196.50-1.74Q194.44-3.80 194.44-7.20L194.44-7.20L194.44-20.84Q194.44-24.28 196.50-26.30Q198.56-28.32 201.96-28.32L201.96-28.32Q205.40-28.32 207.48-26.30Q209.56-24.28 209.56-20.84L209.56-20.84L209.56-20.36Q209.56-20.16 209.42-20Q209.28-19.84 209.08-19.84L209.08-19.84L205.36-19.68Q204.88-19.68 204.88-20.16L204.88-20.16L204.88-21.16Q204.88-22.56 204.08-23.44Q203.28-24.32 201.96-24.32L201.96-24.32Q200.68-24.32 199.88-23.44Q199.08-22.56 199.08-21.16L199.08-21.16L199.08-6.84Q199.08-5.44 199.88-4.56Q200.68-3.68 201.96-3.68L201.96-3.68Q203.28-3.68 204.08-4.56Q204.88-5.44 204.88-6.84L204.88-6.84L204.88-7.84Q204.88-8.04 205.02-8.18Q205.16-8.32 205.36-8.32L205.36-8.32L209.08-8.16Q209.28-8.16 209.42-8.02Q209.56-7.88 209.56-7.68L209.56-7.68L209.56-7.20Q209.56-3.80 207.48-1.74Q205.40 0.32 201.96 0.32L201.96 0.32Z M223.56 0.32Q220.12 0.32 218.02-1.76Q215.92-3.84 215.92-7.28L215.92-7.28L215.92-20.72Q215.92-24.16 218.02-26.24Q220.12-28.32 223.56-28.32L223.56-28.32Q227.00-28.32 229.12-26.24Q231.24-24.16 231.24-20.72L231.24-20.72L231.24-7.28Q231.24-3.84 229.12-1.76Q227.00 0.32 223.56 0.32L223.56 0.32ZM223.56-3.68Q224.92-3.68 225.76-4.62Q226.60-5.56 226.60-7.08L226.60-7.08L226.60-20.92Q226.60-22.44 225.76-23.38Q224.92-24.32 223.56-24.32L223.56-24.32Q222.20-24.32 221.38-23.38Q220.56-22.44 220.56-20.92L220.56-20.92L220.56-7.08Q220.56-5.56 221.38-4.62Q222.20-3.68 223.56-3.68L223.56-3.68Z M238.68 0Q238.48 0 238.34-0.14Q238.20-0.28 238.20-0.48L238.20-0.48L238.20-27.52Q238.20-27.72 238.34-27.86Q238.48-28 238.68-28L238.68-28L242.32-28Q242.72-28 242.88-27.64L242.88-27.64L246.72-19Q246.84-18.76 246.96-19L246.96-19L250.76-27.64Q250.92-28 251.32-28L251.32-28L255.00-28Q255.20-28 255.34-27.86Q255.48-27.72 255.48-27.52L255.48-27.52L255.48-0.48Q255.48-0.28 255.34-0.14Q255.20 0 255.00 0L255.00 0L251.32 0Q251.12 0 250.98-0.14Q250.84-0.28 250.84-0.48L250.84-0.48L250.84-17.92Q250.84-18.08 250.76-18.08Q250.68-18.08 250.60-17.96L250.60-17.96L247.16-10.96Q247.00-10.60 246.84-10.60L246.84-10.60Q246.72-10.60 246.52-10.96L246.52-10.96L243.08-18.04Q243.00-18.16 242.92-18.14Q242.84-18.12 242.84-17.96L242.84-17.96L242.84-0.48Q242.84-0.28 242.70-0.14Q242.56 0 242.36 0L242.36 0L238.68 0Z"/></g>
</svg>
</g></svg></svg>